<mxfile host="app.diagrams.net" agent="Mozilla/5.0 (Windows NT 10.0; Win64; x64) AppleWebKit/537.36 (KHTML, like Gecko) Chrome/131.0.0.0 Safari/537.36 Edg/131.0.0.0" version="24.9.1">
  <diagram name="Page-1" id="iRGl8z7AOG4Q8YRg3Wai">
    <mxGraphModel dx="1892" dy="1665" grid="1" gridSize="10" guides="1" tooltips="1" connect="1" arrows="1" fold="1" page="1" pageScale="1" pageWidth="850" pageHeight="1100" math="0" shadow="0">
      <root>
        <mxCell id="0" />
        <mxCell id="1" parent="0" />
        <mxCell id="fFff_EoT_uVatTgC5bUp-2" value="&lt;font data-font-src=&quot;https://fonts.googleapis.com/css?family=Sarabun&quot; face=&quot;Sarabun&quot;&gt;Start&lt;/font&gt;" style="ellipse;whiteSpace=wrap;html=1;" parent="1" vertex="1">
          <mxGeometry x="-590.0100000000001" y="-1080" width="130" height="30" as="geometry" />
        </mxCell>
        <mxCell id="fFff_EoT_uVatTgC5bUp-3" value="" style="edgeStyle=orthogonalEdgeStyle;rounded=0;orthogonalLoop=1;jettySize=auto;html=1;" parent="1" source="fFff_EoT_uVatTgC5bUp-4" edge="1">
          <mxGeometry relative="1" as="geometry">
            <mxPoint x="-525" y="-950" as="targetPoint" />
          </mxGeometry>
        </mxCell>
        <mxCell id="fFff_EoT_uVatTgC5bUp-4" value="กำหนดตัวแปร input" style="rounded=0;whiteSpace=wrap;html=1;" parent="1" vertex="1">
          <mxGeometry x="-590.0000000000001" y="-1020" width="130" height="40" as="geometry" />
        </mxCell>
        <mxCell id="fFff_EoT_uVatTgC5bUp-7" value="" style="edgeStyle=orthogonalEdgeStyle;rounded=0;orthogonalLoop=1;jettySize=auto;html=1;" parent="1" source="fFff_EoT_uVatTgC5bUp-8" edge="1">
          <mxGeometry relative="1" as="geometry">
            <mxPoint x="-525" y="-950" as="targetPoint" />
          </mxGeometry>
        </mxCell>
        <mxCell id="fFff_EoT_uVatTgC5bUp-8" value="กำหนดตัวแปร Start" style="rounded=0;whiteSpace=wrap;html=1;" parent="1" vertex="1">
          <mxGeometry x="-590.0000000000001" y="-1020" width="130" height="40" as="geometry" />
        </mxCell>
        <mxCell id="fFff_EoT_uVatTgC5bUp-14" value="" style="edgeStyle=orthogonalEdgeStyle;rounded=0;orthogonalLoop=1;jettySize=auto;html=1;" parent="1" source="fFff_EoT_uVatTgC5bUp-9" target="fFff_EoT_uVatTgC5bUp-13" edge="1">
          <mxGeometry relative="1" as="geometry" />
        </mxCell>
        <mxCell id="fFff_EoT_uVatTgC5bUp-9" value="กรอกค่า Start" style="shape=parallelogram;perimeter=parallelogramPerimeter;whiteSpace=wrap;html=1;fixedSize=1;" parent="1" vertex="1">
          <mxGeometry x="-590.0000000000001" y="-880" width="130" height="40" as="geometry" />
        </mxCell>
        <mxCell id="fFff_EoT_uVatTgC5bUp-32" value="" style="edgeStyle=orthogonalEdgeStyle;rounded=0;orthogonalLoop=1;jettySize=auto;html=1;" parent="1" source="fFff_EoT_uVatTgC5bUp-10" target="fFff_EoT_uVatTgC5bUp-23" edge="1">
          <mxGeometry relative="1" as="geometry" />
        </mxCell>
        <mxCell id="fFff_EoT_uVatTgC5bUp-57" style="edgeStyle=orthogonalEdgeStyle;rounded=0;orthogonalLoop=1;jettySize=auto;html=1;entryX=0.5;entryY=0;entryDx=0;entryDy=0;" parent="1" source="fFff_EoT_uVatTgC5bUp-10" target="fFff_EoT_uVatTgC5bUp-56" edge="1">
          <mxGeometry relative="1" as="geometry">
            <Array as="points">
              <mxPoint x="-300" y="-645" />
              <mxPoint x="-300" y="-60" />
            </Array>
          </mxGeometry>
        </mxCell>
        <mxCell id="fFff_EoT_uVatTgC5bUp-10" value="Start เท่ากับ End&amp;nbsp;&lt;div&gt;หรือไม่&lt;/div&gt;" style="rhombus;whiteSpace=wrap;html=1;" parent="1" vertex="1">
          <mxGeometry x="-601.66" y="-680" width="153.33" height="70" as="geometry" />
        </mxCell>
        <mxCell id="fFff_EoT_uVatTgC5bUp-12" value="" style="edgeStyle=orthogonalEdgeStyle;rounded=0;orthogonalLoop=1;jettySize=auto;html=1;" parent="1" source="fFff_EoT_uVatTgC5bUp-11" target="fFff_EoT_uVatTgC5bUp-9" edge="1">
          <mxGeometry relative="1" as="geometry" />
        </mxCell>
        <mxCell id="fFff_EoT_uVatTgC5bUp-11" value="กำหนดตัวแปร End" style="rounded=0;whiteSpace=wrap;html=1;" parent="1" vertex="1">
          <mxGeometry x="-590.0000000000001" y="-950" width="130" height="40" as="geometry" />
        </mxCell>
        <mxCell id="fFff_EoT_uVatTgC5bUp-53" value="" style="edgeStyle=orthogonalEdgeStyle;rounded=0;orthogonalLoop=1;jettySize=auto;html=1;" parent="1" source="fFff_EoT_uVatTgC5bUp-13" target="fFff_EoT_uVatTgC5bUp-51" edge="1">
          <mxGeometry relative="1" as="geometry" />
        </mxCell>
        <mxCell id="fFff_EoT_uVatTgC5bUp-13" value="กรอกค่า End" style="shape=parallelogram;perimeter=parallelogramPerimeter;whiteSpace=wrap;html=1;fixedSize=1;" parent="1" vertex="1">
          <mxGeometry x="-590.0000000000001" y="-810" width="130" height="40" as="geometry" />
        </mxCell>
        <mxCell id="fFff_EoT_uVatTgC5bUp-39" value="" style="edgeStyle=orthogonalEdgeStyle;rounded=0;orthogonalLoop=1;jettySize=auto;html=1;" parent="1" source="fFff_EoT_uVatTgC5bUp-16" target="fFff_EoT_uVatTgC5bUp-28" edge="1">
          <mxGeometry relative="1" as="geometry" />
        </mxCell>
        <mxCell id="fFff_EoT_uVatTgC5bUp-16" value="นำ start ไปคูณกับจำนวนรอบ" style="rounded=0;whiteSpace=wrap;html=1;" parent="1" vertex="1">
          <mxGeometry x="-599.99" y="-520" width="150" height="40" as="geometry" />
        </mxCell>
        <mxCell id="fFff_EoT_uVatTgC5bUp-42" value="" style="edgeStyle=orthogonalEdgeStyle;rounded=0;orthogonalLoop=1;jettySize=auto;html=1;" parent="1" source="fFff_EoT_uVatTgC5bUp-20" target="fFff_EoT_uVatTgC5bUp-26" edge="1">
          <mxGeometry relative="1" as="geometry" />
        </mxCell>
        <mxCell id="fFff_EoT_uVatTgC5bUp-43" style="edgeStyle=orthogonalEdgeStyle;rounded=0;orthogonalLoop=1;jettySize=auto;html=1;entryX=0;entryY=0.5;entryDx=0;entryDy=0;" parent="1" source="fFff_EoT_uVatTgC5bUp-20" target="fFff_EoT_uVatTgC5bUp-23" edge="1">
          <mxGeometry relative="1" as="geometry">
            <Array as="points">
              <mxPoint x="-670" y="-335" />
              <mxPoint x="-670" y="-567" />
            </Array>
          </mxGeometry>
        </mxCell>
        <mxCell id="fFff_EoT_uVatTgC5bUp-20" value="start คูณครบ 9 รอบ&lt;div&gt;แล้วหรือไม่&lt;/div&gt;" style="rhombus;whiteSpace=wrap;html=1;" parent="1" vertex="1">
          <mxGeometry x="-601.6600000000001" y="-370" width="153.33" height="70" as="geometry" />
        </mxCell>
        <mxCell id="fFff_EoT_uVatTgC5bUp-25" value="" style="edgeStyle=orthogonalEdgeStyle;rounded=0;orthogonalLoop=1;jettySize=auto;html=1;" parent="1" source="fFff_EoT_uVatTgC5bUp-23" target="fFff_EoT_uVatTgC5bUp-16" edge="1">
          <mxGeometry relative="1" as="geometry" />
        </mxCell>
        <mxCell id="fFff_EoT_uVatTgC5bUp-23" value="" style="ellipse;whiteSpace=wrap;html=1;aspect=fixed;" parent="1" vertex="1">
          <mxGeometry x="-537.5" y="-580" width="25" height="25" as="geometry" />
        </mxCell>
        <mxCell id="fFff_EoT_uVatTgC5bUp-54" style="edgeStyle=orthogonalEdgeStyle;rounded=0;orthogonalLoop=1;jettySize=auto;html=1;entryX=0;entryY=0.5;entryDx=0;entryDy=0;" parent="1" source="fFff_EoT_uVatTgC5bUp-26" target="fFff_EoT_uVatTgC5bUp-51" edge="1">
          <mxGeometry relative="1" as="geometry">
            <Array as="points">
              <mxPoint x="-525" y="-130" />
              <mxPoint x="-780" y="-130" />
              <mxPoint x="-780" y="-727" />
            </Array>
          </mxGeometry>
        </mxCell>
        <mxCell id="fFff_EoT_uVatTgC5bUp-26" value="เพิ่มค่า start&amp;nbsp; ไป 1 หน่วย&amp;nbsp;" style="rounded=0;whiteSpace=wrap;html=1;" parent="1" vertex="1">
          <mxGeometry x="-600" y="-240" width="150" height="40" as="geometry" />
        </mxCell>
        <mxCell id="fFff_EoT_uVatTgC5bUp-40" value="" style="edgeStyle=orthogonalEdgeStyle;rounded=0;orthogonalLoop=1;jettySize=auto;html=1;" parent="1" source="fFff_EoT_uVatTgC5bUp-28" target="fFff_EoT_uVatTgC5bUp-20" edge="1">
          <mxGeometry relative="1" as="geometry" />
        </mxCell>
        <mxCell id="fFff_EoT_uVatTgC5bUp-28" value="ปริ้นค่าของ start ที่ถูกคูณ&amp;nbsp;" style="shape=parallelogram;perimeter=parallelogramPerimeter;whiteSpace=wrap;html=1;fixedSize=1;" parent="1" vertex="1">
          <mxGeometry x="-610.01" y="-440" width="170" height="40" as="geometry" />
        </mxCell>
        <mxCell id="fFff_EoT_uVatTgC5bUp-31" style="edgeStyle=orthogonalEdgeStyle;rounded=0;orthogonalLoop=1;jettySize=auto;html=1;entryX=0.5;entryY=0;entryDx=0;entryDy=0;" parent="1" target="fFff_EoT_uVatTgC5bUp-8" edge="1">
          <mxGeometry relative="1" as="geometry">
            <mxPoint x="-525" y="-1050" as="sourcePoint" />
          </mxGeometry>
        </mxCell>
        <mxCell id="fFff_EoT_uVatTgC5bUp-44" value="T" style="text;html=1;align=center;verticalAlign=middle;resizable=0;points=[];autosize=1;strokeColor=none;fillColor=none;" parent="1" vertex="1">
          <mxGeometry x="-520" y="-310" width="30" height="30" as="geometry" />
        </mxCell>
        <mxCell id="fFff_EoT_uVatTgC5bUp-45" value="F" style="text;html=1;align=center;verticalAlign=middle;resizable=0;points=[];autosize=1;strokeColor=none;fillColor=none;" parent="1" vertex="1">
          <mxGeometry x="-610.01" y="-370" width="30" height="30" as="geometry" />
        </mxCell>
        <mxCell id="fFff_EoT_uVatTgC5bUp-52" value="" style="edgeStyle=orthogonalEdgeStyle;rounded=0;orthogonalLoop=1;jettySize=auto;html=1;" parent="1" source="fFff_EoT_uVatTgC5bUp-51" target="fFff_EoT_uVatTgC5bUp-10" edge="1">
          <mxGeometry relative="1" as="geometry" />
        </mxCell>
        <mxCell id="fFff_EoT_uVatTgC5bUp-51" value="" style="ellipse;whiteSpace=wrap;html=1;aspect=fixed;" parent="1" vertex="1">
          <mxGeometry x="-537.49" y="-740" width="25" height="25" as="geometry" />
        </mxCell>
        <mxCell id="fFff_EoT_uVatTgC5bUp-55" value="T" style="text;html=1;align=center;verticalAlign=middle;resizable=0;points=[];autosize=1;strokeColor=none;fillColor=none;" parent="1" vertex="1">
          <mxGeometry x="-455" y="-680" width="30" height="30" as="geometry" />
        </mxCell>
        <mxCell id="fFff_EoT_uVatTgC5bUp-56" value="&lt;font data-font-src=&quot;https://fonts.googleapis.com/css?family=Sarabun&quot; face=&quot;Sarabun&quot;&gt;END&lt;/font&gt;" style="ellipse;whiteSpace=wrap;html=1;" parent="1" vertex="1">
          <mxGeometry x="-590.0100000000001" y="-40" width="130" height="30" as="geometry" />
        </mxCell>
        <mxCell id="fFff_EoT_uVatTgC5bUp-58" value="F" style="text;html=1;align=center;verticalAlign=middle;resizable=0;points=[];autosize=1;strokeColor=none;fillColor=none;" parent="1" vertex="1">
          <mxGeometry x="-520" y="-610" width="30" height="30" as="geometry" />
        </mxCell>
      </root>
    </mxGraphModel>
  </diagram>
</mxfile>
